<?xml version="1.0" standalone="no"?>
<!DOCTYPE svg PUBLIC "-//W3C//DTD SVG 20010904//EN"
 "http://www.w3.org/TR/2001/REC-SVG-20010904/DTD/svg10.dtd">
<svg version="1.0" xmlns="http://www.w3.org/2000/svg"
 width="700.000000pt" height="700.000000pt" viewBox="0 0 700.000000 700.000000"
 preserveAspectRatio="xMidYMid meet">
<metadata>
Created by potrace 1.14, written by Peter Selinger 2001-2017
</metadata>
<g transform="translate(0.000000,700.000000) scale(0.100000,-0.100000)"
fill="#000000" stroke="none">
<path d="M2939 6506 c-2 -2 -40 -6 -84 -10 -475 -40 -927 -376 -1127 -837 -92
-214 -118 -396 -118 -840 l0 -269 -208 0 c-240 0 -311 -13 -435 -77 -107 -55
-222 -173 -276 -283 -75 -153 -71 -54 -71 -1703 0 -1651 -4 -1548 71 -1703 74
-151 217 -275 382 -331 l82 -28 1870 0 1870 0 80 28 c44 16 107 45 140 65 82
49 183 154 224 232 19 36 38 68 44 71 5 3 8 9 8 13 -3 22 0 36 8 32 4 -3 8 2
8 12 0 59 -4 57 91 58 180 1 321 100 379 268 17 48 18 118 18 1143 0 600 3
1089 8 1086 4 -2 7 1 7 6 0 6 7 11 17 11 24 0 136 65 201 117 357 285 483 756
315 1182 -63 161 -207 346 -348 446 -509 364 -1230 187 -1505 -370 -27 -55
-60 -138 -72 -185 -22 -83 -24 -85 -55 -88 -42 -4 -58 5 -42 24 6 8 7 14 3 14
-5 0 -8 101 -7 228 2 125 3 232 3 237 1 49 -10 219 -14 235 -3 11 -9 30 -12
41 -5 16 -3 20 7 13 11 -6 12 -5 2 7 -7 9 -13 30 -15 47 -1 18 -6 32 -11 32
-5 0 -7 6 -4 14 3 7 -1 25 -8 40 -8 14 -12 26 -9 26 3 0 0 8 -5 18 -7 13 -6
23 2 32 9 10 9 11 -1 6 -7 -4 -14 -1 -16 6 -2 7 -7 22 -12 33 -4 11 -8 22 -8
25 -1 3 -5 11 -9 18 -5 6 -5 12 0 12 4 0 2 4 -5 9 -8 5 -15 20 -15 35 -1 14
-5 26 -9 26 -3 0 -21 26 -39 58 -18 31 -39 65 -47 75 -8 9 -12 17 -9 17 7 0 2
7 -50 68 -13 15 -23 32 -23 37 0 6 5 3 11 -5 9 -13 10 -13 6 0 -2 8 -10 14
-17 12 -13 -3 -47 37 -42 51 1 4 -2 7 -6 7 -5 0 -32 23 -61 51 -41 39 -50 53
-40 60 10 6 7 8 -11 7 -16 -2 -24 2 -22 10 1 8 -2 11 -6 8 -5 -3 -20 4 -33 15
-13 11 -36 28 -51 37 -16 9 -28 20 -28 24 0 4 -4 8 -10 8 -17 0 -79 47 -72 55
4 5 2 5 -4 2 -6 -4 -31 4 -55 18 -24 14 -51 27 -59 30 -8 3 -28 13 -43 21 -16
7 -34 14 -42 14 -22 0 -65 27 -57 36 4 4 0 3 -9 -4 -9 -6 -19 -8 -25 -3 -14
13 -170 46 -269 57 -55 6 -222 13 -226 10z m280 -636 c148 -42 265 -113 373
-228 75 -80 128 -162 164 -258 46 -121 53 -193 54 -526 l0 -308 -794 0 -794 0
0 303 c0 166 4 333 10 371 25 186 142 385 298 508 48 39 171 105 233 126 125
44 326 49 456 12z m2356 -780 c116 -45 176 -185 126 -295 -75 -166 -307 -177
-393 -18 -99 181 78 388 267 313z"/>
<path d="M4095 6040 c-3 -5 -1 -10 4 -10 6 0 11 5 11 10 0 6 -2 10 -4 10 -3 0
-8 -4 -11 -10z"/>
<path d="M5420 906 c0 -2 8 -10 18 -17 15 -13 16 -12 3 4 -13 16 -21 21 -21
13z"/>
</g>
</svg>
